# xmcd
#
# Track frame offsets: 
#        150
#        10995
#        19556
#        32556
#        44499
#        55521
#        68086
#        80219
#        90243
#        102853
#        114222
#        125509
#        136311
#        144653
#        157324
#        169063
#        178854
#        187878
#        199674
#        208733
#        218574
#        228353
#        239584
#        249837
#        257194
#
# Disc length: 3594 seconds
#
# Revision: 0
# Processed by: cddbd v1.5.2PL0 Copyright (c) Steve Scherf et al.
# Submitted via: ExactAudioCopy v1.0b3
#
DISCID=570e0819
DTITLE=Various Artist - Ain't Gonna Hush
DYEAR=1900
DGENRE=R and B
TTITLE0=Annisteen Allen - G'wan About Your Business
TTITLE1=Little Miss Jessie - My Baby Has Gone
TTITLE2=Big Maybelle - One Monkey Don't Stop No Show
TTITLE3=Myrtle Jones - Right To Love You
TTITLE4=Betty Everett - Killer Diller
TTITLE5=Jeannie Barnes - Can't Get You Off My Mind
TTITLE6=Tiny Topsy - Come On, Come On, Come On
TTITLE7=LaVern Baker - Whipper Snapper
TTITLE8=Big Mama Thornton - Don't Talk Back
TTITLE9=Ann Cole - I've Got Nothing Working Now
TTITLE10=Anna Mae Rogers - I Called You Up Daddy
TTITLE11=Jimmie Lee - Blue And Lonesome
TTITLE12=Baby Jean - If You Wanna
TTITLE13=Baby Washington - You Never Could Be Mine
TTITLE14=Varetta Dillard - Good Gravy Baby
TTITLE15=Vikki Nelson - Bright And Early
TTITLE16=June Bug Bailey - Lee Street Blues
TTITLE17=Mamie Perry - I'm Hurted
TTITLE18=Betty Everett - Ain't Gonna Cry
TTITLE19=Annisteen Allen - I've Got Troubles
TTITLE20=Kitty White - I'm Gonna Be A Fool Next Monday
TTITLE21=Anna Belle Caesar - Little Annie
TTITLE22=Shirley Gunter - Oop Shoop
TTITLE23=June Bug Bailey - Louisiana Twist
TTITLE24=Mamie Perry - My Baby Waited Too Long
EXTD=
EXTT0=
EXTT1=
EXTT2=
EXTT3=
EXTT4=
EXTT5=
EXTT6=
EXTT7=
EXTT8=
EXTT9=
EXTT10=
EXTT11=
EXTT12=
EXTT13=
EXTT14=
EXTT15=
EXTT16=
EXTT17=
EXTT18=
EXTT19=
EXTT20=
EXTT21=
EXTT22=
EXTT23=
EXTT24=
PLAYORDER=
